<svg xmlns="http://www.w3.org/2000/svg" xmlns:xlink="http://www.w3.org/1999/xlink" width="500" zoomAndPan="magnify" viewBox="0 0 375 374.999991" height="500" preserveAspectRatio="xMidYMid meet" version="1.0"><defs><g/><clipPath id="d0890d4c76"><path d="M 84.375 84.375 L 290.625 84.375 L 290.625 290.625 L 84.375 290.625 Z M 84.375 84.375 " clip-rule="nonzero"/></clipPath><clipPath id="85f62d591a"><path d="M 187.5 290.625 C 159.96875 290.625 134.042969 279.910156 114.585938 260.414062 C 95.089844 240.957031 84.375 215.03125 84.375 187.5 C 84.375 159.96875 95.089844 134.042969 114.585938 114.585938 C 134.042969 95.089844 159.96875 84.375 187.5 84.375 C 215.03125 84.375 240.957031 95.089844 260.414062 114.585938 C 279.910156 134.082031 290.625 159.96875 290.625 187.5 C 290.625 215.03125 279.910156 240.957031 260.414062 260.414062 C 240.957031 279.910156 215.03125 290.625 187.5 290.625 Z M 187.5 90.558594 C 161.617188 90.558594 137.257812 100.65625 118.957031 118.957031 C 100.65625 137.257812 90.558594 161.617188 90.558594 187.5 C 90.558594 213.382812 100.65625 237.742188 118.957031 256.042969 C 137.257812 274.34375 161.617188 284.441406 187.5 284.441406 C 213.382812 284.441406 237.742188 274.34375 256.042969 256.042969 C 274.34375 237.742188 284.441406 213.382812 284.441406 187.5 C 284.441406 161.617188 274.34375 137.257812 256.042969 118.957031 C 237.742188 100.65625 213.382812 90.558594 187.5 90.558594 Z M 187.5 90.558594 " clip-rule="nonzero"/></clipPath><clipPath id="6c7cd2d949"><path d="M 0.375 0.375 L 206.625 0.375 L 206.625 206.625 L 0.375 206.625 Z M 0.375 0.375 " clip-rule="nonzero"/></clipPath><clipPath id="8be4f1a32b"><path d="M 103.5 206.625 C 75.96875 206.625 50.042969 195.910156 30.585938 176.414062 C 11.089844 156.957031 0.375 131.03125 0.375 103.5 C 0.375 75.96875 11.089844 50.042969 30.585938 30.585938 C 50.042969 11.089844 75.96875 0.375 103.5 0.375 C 131.03125 0.375 156.957031 11.089844 176.414062 30.585938 C 195.910156 50.082031 206.625 75.96875 206.625 103.5 C 206.625 131.03125 195.910156 156.957031 176.414062 176.414062 C 156.957031 195.910156 131.03125 206.625 103.5 206.625 Z M 103.5 6.558594 C 77.617188 6.558594 53.257812 16.65625 34.957031 34.957031 C 16.65625 53.257812 6.558594 77.617188 6.558594 103.5 C 6.558594 129.382812 16.65625 153.742188 34.957031 172.042969 C 53.257812 190.34375 77.617188 200.441406 103.5 200.441406 C 129.382812 200.441406 153.742188 190.34375 172.042969 172.042969 C 190.34375 153.742188 200.441406 129.382812 200.441406 103.5 C 200.441406 77.617188 190.34375 53.257812 172.042969 34.957031 C 153.742188 16.65625 129.382812 6.558594 103.5 6.558594 Z M 103.5 6.558594 " clip-rule="nonzero"/></clipPath><clipPath id="aec7b89ba6"><rect x="0" width="207" y="0" height="207"/></clipPath><clipPath id="45e7d5212e"><rect x="0" width="246" y="0" height="189"/></clipPath></defs><g clip-path="url(#d0890d4c76)"><g clip-path="url(#85f62d591a)"><g transform="matrix(1, 0, 0, 1, 84, 84)"><g clip-path="url(#aec7b89ba6)"><g clip-path="url(#6c7cd2d949)"><g clip-path="url(#8be4f1a32b)"><path fill="#252629" d="M 0.375 0.375 L 206.625 0.375 L 206.625 206.625 L 0.375 206.625 Z M 0.375 0.375 " fill-opacity="1" fill-rule="nonzero"/></g></g></g></g></g></g><g transform="matrix(1, 0, 0, 1, 79, 93)"><g clip-path="url(#45e7d5212e)"><g fill="#252629" fill-opacity="1"><g transform="translate(0.398075, 135.767638)"><g><path d="M 49.0625 -99.796875 C 57.144531 -99.796875 63.878906 -97.84375 69.265625 -93.9375 C 76.515625 -88.738281 80.140625 -80.609375 80.140625 -69.546875 C 80.140625 -61.554688 77.910156 -54.726562 73.453125 -49.0625 C 68.617188 -43.019531 61.878906 -40 53.234375 -40 C 48.679688 -40 44.546875 -41.085938 40.828125 -43.265625 C 37.117188 -45.453125 34.9375 -49.195312 34.28125 -54.5 L 35.546875 -54.90625 C 36.566406 -50.914062 38.9375 -48.128906 42.65625 -46.546875 C 45.15625 -45.429688 47.382812 -44.875 49.34375 -44.875 C 56.957031 -44.875 62.484375 -47.847656 65.921875 -53.796875 C 68.429688 -58.160156 69.6875 -63.363281 69.6875 -69.40625 C 69.6875 -79.070312 66.992188 -86.039062 61.609375 -90.3125 C 57.515625 -93.65625 52.3125 -95.328125 46 -95.328125 C 44.507812 -95.328125 43.226562 -95.257812 42.15625 -95.125 C 41.09375 -94.988281 36.425781 -94.222656 28.15625 -92.828125 L 28.15625 -10.171875 C 28.25 -7.660156 29.175781 -5.566406 30.9375 -3.890625 C 32.707031 -2.222656 34.753906 -1.390625 37.078125 -1.390625 L 38.890625 -1.390625 L 38.890625 0 L 8.359375 0 L 8.359375 -1.390625 L 10.171875 -1.390625 C 12.492188 -1.390625 14.535156 -2.222656 16.296875 -3.890625 C 18.066406 -5.566406 19 -7.660156 19.09375 -10.171875 L 19.09375 -85.578125 C 19.09375 -87.992188 18.394531 -89.875 17 -91.21875 C 15.601562 -92.5625 13.789062 -93.234375 11.5625 -93.234375 C 11.101562 -93.234375 10.640625 -93.191406 10.171875 -93.109375 L 8.5 -92.96875 L 8.21875 -94.359375 C 13.050781 -94.816406 19.53125 -95.71875 27.65625 -97.0625 C 35.789062 -98.414062 40.832031 -99.207031 42.78125 -99.4375 C 44.738281 -99.675781 46.832031 -99.796875 49.0625 -99.796875 Z M 49.0625 -99.796875 "/></g></g></g><g fill="#252629" fill-opacity="1"><g transform="translate(86.804078, 135.767638)"><g><path d="M 153.3125 22.578125 C 153.875 22.578125 154.429688 22.578125 154.984375 22.578125 L 154.984375 23.96875 C 152.378906 24.34375 149.472656 24.53125 146.265625 24.53125 C 143.066406 24.53125 139.117188 23.832031 134.421875 22.4375 C 129.734375 21.039062 125.484375 18.441406 121.671875 14.640625 C 113.867188 6.828125 109.128906 -3.300781 107.453125 -15.75 L 98.953125 -77.765625 L 69.96875 -12.265625 C 67.363281 -6.597656 65.785156 -1.859375 65.234375 1.953125 L 63.828125 1.953125 L 27.734375 -76.515625 L 21.609375 -7.25 C 21.421875 -5.664062 21.90625 -4.269531 23.0625 -3.0625 C 24.226562 -1.851562 25.507812 -1.25 26.90625 -1.25 L 29.125 -1.25 L 29.125 0 L 2.09375 0 L 2.09375 -1.390625 L 4.328125 -1.390625 C 6.828125 -1.390625 9.03125 -2.15625 10.9375 -3.6875 C 12.84375 -5.226562 14.03125 -7.25 14.5 -9.75 L 23.28125 -85.859375 C 15.101562 -101.929688 5.300781 -109.96875 -6.125 -109.96875 C -7.15625 -109.96875 -8.226562 -109.921875 -9.34375 -109.828125 L -9.34375 -111.21875 C -6.832031 -111.875 -4.785156 -112.203125 -3.203125 -112.203125 C -1.628906 -112.203125 0.0820312 -112.128906 1.9375 -111.984375 C 3.800781 -111.847656 5.988281 -111.40625 8.5 -110.65625 C 11.007812 -109.914062 13.378906 -108.828125 15.609375 -107.390625 C 17.835938 -105.953125 19.785156 -104.460938 21.453125 -102.921875 C 23.128906 -101.390625 24.710938 -99.695312 26.203125 -97.84375 C 28.710938 -94.5 30.710938 -91.289062 32.203125 -88.21875 L 65.78125 -15.46875 L 103.28125 -99.515625 L 104.53125 -99.515625 L 117.5 -17 C 119.445312 -3.988281 123.648438 5.859375 130.109375 12.546875 C 136.566406 19.234375 144.300781 22.578125 153.3125 22.578125 Z M 153.3125 22.578125 "/></g></g></g></g></g></svg>